<svg xmlns="http://www.w3.org/2000/svg" viewBox="0 0 979.57 371.29"><defs><style>.cls-1,.cls-6{fill:#4f8b3c;}.cls-2{fill:#477e37;}.cls-3{fill:#c20e1a;}.cls-4,.cls-5{fill:#840e0a;}.cls-11,.cls-5,.cls-9{font-size:61px;}.cls-10,.cls-11,.cls-12,.cls-5,.cls-6,.cls-9{font-family:Poppins-Bold, Poppins;font-weight:700;}.cls-10,.cls-12,.cls-6{font-size:52px;}.cls-7{fill:#fff;letter-spacing:0em;}.cls-10,.cls-8,.cls-9{fill:#f9f9f9;}</style></defs><g id="OBJECTS"><path class="cls-1" d="M126.72,258.75c-2.64,1.29-15.45,0-15.59,1.53-.4,4.43,8.33,5.94,10.69,6.42,9.81,2,17.64-3.84,29.11-14.63,11.84-11.14,20.92-27.77,19.87-42.78-1.48-21.16-20.49-31.92-37.4-26.07a47.92,47.92,0,0,0-20.94,13.84,3.21,3.21,0,0,1-4.91,0,48,48,0,0,0-20.94-13.84c-16.91-5.85-35.78,5.48-39.39,25.47-4.36,24.09,11.83,51.8,39.76,69,7,4.32,28.3,12.11,39,9,7-2.07,24.78-16.11,22.84-18-4.87-4.85-16.49,7.31-25.2,6.71-8.17-.55-13.55-2-16.34-6.12-4.52-6.64-3.6-15.35-5.79-14.62-5.27-1.76-1.7,11.77-6.17,9.07-18.86-11.39-29.84-30-26.92-46.08,2.39-13.24,14.88-20.73,26.07-16.86a32.09,32.09,0,0,1,13.1,8.31,3.26,3.26,0,0,0,4.78,0,32.22,32.22,0,0,1,13.11-8.31c11.19-3.87,23.68,3.62,26.07,16.86,1.86,10.3-2,21.6-9.88,31.39-3.41-1.3-11-5.76-13.18-2.35-1.33,2.07,3.21,3.52,3.78,5.14C133.12,254.19,128.73,257.77,126.72,258.75Z" transform="translate(-46.52 -66.91)"/><path class="cls-2" d="M125.47,280.85c7.47-1.19,15.53-9.21,23.5-12a.4.4,0,0,0-.11-.2c-4.87-4.85-16.49,7.31-25.2,6.71-8.17-.55-13.55-2-16.34-6.12-4.52-6.64-3.6-15.35-5.79-14.62-5.27-1.76-1.7,11.77-6.17,9.07-18.86-11.39-29.84-30-26.92-46.08,2.39-13.24,14.88-20.73,26.07-16.86a33.93,33.93,0,0,1,7.39,3.59c-8.28-6.14-16.49-11.29-27-8.62-6.84,1.74-13.5,9-15,15.93C51.68,249.35,97.69,285.27,125.47,280.85Z" transform="translate(-46.52 -66.91)"/><path class="cls-2" d="M170.8,209.29c-1.48-21.16-20.49-31.92-37.4-26.07a51.33,51.33,0,0,0-13.6,7.08c0,.37,14.33-5.13,22.84-2.89,16.81,4.42,20.65,20.08,18.31,35-2.07,13.18-16.76,34.83-33.88,40.93-3.46,1.23-11.55-.4-14.68-3.69-.76.13-1.23.32-1.26.6-.4,4.43,8.33,5.94,10.69,6.42,9.81,2,17.64-3.84,29.11-14.63C162.77,240.93,171.85,224.3,170.8,209.29Z" transform="translate(-46.52 -66.91)"/><path class="cls-3" d="M108.69,236.36a15.26,15.26,0,0,0,1.12-2.74,15.72,15.72,0,0,1,1.26-3,8.52,8.52,0,0,1,3.09-3v-8a1.83,1.83,0,0,0-1.82-1.82h-7.28a1.83,1.83,0,0,0-1.82,1.82v9.47H93.77A1.82,1.82,0,0,0,92,230.89v7.28A1.82,1.82,0,0,0,93.77,240h9.4A7.46,7.46,0,0,0,108.69,236.36Z" transform="translate(-46.52 -66.91)"/><path class="cls-3" d="M123.63,229.07h-9.45a7.06,7.06,0,0,0-2,2.18A15.53,15.53,0,0,0,111,234a16,16,0,0,1-1.22,3,8.78,8.78,0,0,1-6.57,4.29v8.18a1.82,1.82,0,0,0,1.82,1.82h7.28a1.82,1.82,0,0,0,1.82-1.82V240h9.47a1.82,1.82,0,0,0,1.82-1.82v-7.28A1.82,1.82,0,0,0,123.63,229.07Z" transform="translate(-46.52 -66.91)"/><path class="cls-4" d="M114.11,219.2a1.81,1.81,0,0,0-1.77-1.42h-7.28a1.83,1.83,0,0,0-1.82,1.82v9.47H93.77A1.82,1.82,0,0,0,92,230.89v7.28a1.75,1.75,0,0,0,.12.65,14.3,14.3,0,0,0,11.14-5.35,30.34,30.34,0,0,0,2.87-4.86,30.5,30.5,0,0,1,3.21-5.37A16,16,0,0,1,114.11,219.2Z" transform="translate(-46.52 -66.91)"/><text class="cls-5" transform="translate(145.1 167.19)">KARUNA</text><text class="cls-6" transform="translate(145.1 220.51)">MEDI<tspan class="cls-7" x="129.01" y="0">C</tspan><tspan class="cls-3" x="168.63" y="0">ALS</tspan></text><path class="cls-3" d="M345.37,278.16a8.66,8.66,0,0,1-4.55,1.2,8.54,8.54,0,0,1-6-2.18l-8,4.14a16.53,16.53,0,0,0,4.55,3.73,18.91,18.91,0,0,0,9.49,2.37A18.28,18.28,0,0,0,352.06,284a16.37,16.37,0,0,0,6.18-9.33h-9.77A7.87,7.87,0,0,1,345.37,278.16Z" transform="translate(-46.52 -66.91)"/><path class="cls-1" d="M334.17,276.5a12.74,12.74,0,0,1,0-15.29,8.5,8.5,0,0,1,6.65-2.86,8.66,8.66,0,0,1,4.55,1.2,7.92,7.92,0,0,1,3.1,3.48h9.77a16.51,16.51,0,0,0-6.18-9.36,18.17,18.17,0,0,0-11.13-3.43,18.91,18.91,0,0,0-9.49,2.37,16.71,16.71,0,0,0-6.53,6.6,21,21,0,0,0,0,19.27,17.43,17.43,0,0,0,2,2.85l8-4.14C334.61,277,334.39,276.74,334.17,276.5Z" transform="translate(-46.52 -66.91)"/><path class="cls-8" d="M691.09,144c-2.64,1.29-15.45,0-15.59,1.53-.4,4.43,8.33,5.94,10.68,6.42,9.82,2,17.65-3.84,29.12-14.63,11.84-11.13,20.92-27.77,19.87-42.78-1.48-21.16-20.49-31.92-37.4-26.07a47.92,47.92,0,0,0-20.94,13.84,3.22,3.22,0,0,1-4.92,0A47.92,47.92,0,0,0,651,68.49C634.07,62.64,615.2,74,611.59,94c-4.36,24.09,11.82,51.8,39.76,69.05,7,4.31,28.3,12.1,39,9,7-2.06,24.78-16.1,22.84-18-4.87-4.86-16.49,7.3-25.2,6.71-8.17-.56-13.55-2-16.34-6.13-4.52-6.63-3.6-15.35-5.79-14.61-5.27-1.77-1.7,11.76-6.17,9.06-18.86-11.38-29.84-30-26.92-46.08C635.2,89.65,647.69,82.15,658.88,86A32.2,32.2,0,0,1,672,94.33a3.26,3.26,0,0,0,4.78,0A32.27,32.27,0,0,1,689.86,86c11.2-3.87,23.69,3.63,26.08,16.86,1.86,10.31-2,21.6-9.88,31.39-3.41-1.3-11-5.76-13.18-2.35-1.33,2.07,3.21,3.52,3.78,5.14C697.49,139.46,693.1,143,691.09,144Z" transform="translate(-46.52 -66.91)"/><path class="cls-8" d="M689.84,166.12c7.47-1.19,15.53-9.2,23.5-12a.37.37,0,0,0-.11-.19c-4.87-4.86-16.49,7.3-25.2,6.71-8.17-.56-13.55-2-16.34-6.13-4.52-6.63-3.6-15.35-5.79-14.61-5.27-1.77-1.7,11.76-6.17,9.06-18.86-11.38-29.84-30-26.92-46.08C635.2,89.65,647.69,82.15,658.88,86a33.93,33.93,0,0,1,7.39,3.59c-8.28-6.14-16.49-11.29-27-8.61-6.84,1.73-13.5,9-15,15.92C616.05,134.62,662.06,170.54,689.84,166.12Z" transform="translate(-46.52 -66.91)"/><path class="cls-8" d="M735.17,94.56c-1.48-21.16-20.49-31.92-37.4-26.07a51.11,51.11,0,0,0-13.61,7.09c.06.36,14.34-5.14,22.85-2.9,16.81,4.42,20.65,20.08,18.31,35-2.07,13.17-16.76,34.82-33.88,40.92-3.46,1.23-11.55-.4-14.68-3.68-.76.12-1.24.31-1.26.59-.4,4.43,8.33,5.94,10.68,6.42,9.82,2,17.65-3.84,29.12-14.63C727.14,126.21,736.22,109.57,735.17,94.56Z" transform="translate(-46.52 -66.91)"/><path class="cls-8" d="M673.06,121.63a15.46,15.46,0,0,0,1.12-2.73,16.14,16.14,0,0,1,1.25-3,8.63,8.63,0,0,1,3.1-3.05v-7.95a1.83,1.83,0,0,0-1.82-1.82h-7.28a1.83,1.83,0,0,0-1.82,1.82v9.47h-9.47a1.82,1.82,0,0,0-1.82,1.82v7.28a1.82,1.82,0,0,0,1.82,1.82h9.4A7.46,7.46,0,0,0,673.06,121.63Z" transform="translate(-46.52 -66.91)"/><path class="cls-8" d="M688,114.34h-9.46a7.27,7.27,0,0,0-2,2.18,15.53,15.53,0,0,0-1.15,2.79,16.35,16.35,0,0,1-1.22,3,8.74,8.74,0,0,1-6.57,4.28v8.18a1.82,1.82,0,0,0,1.82,1.82h7.28a1.82,1.82,0,0,0,1.82-1.82v-9.47H688a1.83,1.83,0,0,0,1.82-1.82v-7.28A1.83,1.83,0,0,0,688,114.34Z" transform="translate(-46.52 -66.91)"/><path class="cls-8" d="M678.48,104.48a1.81,1.81,0,0,0-1.77-1.43h-7.28a1.83,1.83,0,0,0-1.82,1.82v9.47h-9.47a1.82,1.82,0,0,0-1.82,1.82v7.28a1.75,1.75,0,0,0,.12.65,14.32,14.32,0,0,0,11.14-5.35,30.34,30.34,0,0,0,2.87-4.86,30.5,30.5,0,0,1,3.21-5.37A15.87,15.87,0,0,1,678.48,104.48Z" transform="translate(-46.52 -66.91)"/><text class="cls-9" transform="translate(709.47 52.47)">KARUNA</text><text class="cls-10" transform="translate(709.47 105.78)">MEDICALS</text><path class="cls-8" d="M909.74,163.43a8.66,8.66,0,0,1-4.55,1.2,8.57,8.57,0,0,1-6-2.17l-8,4.14a16.87,16.87,0,0,0,4.56,3.72,18.91,18.91,0,0,0,9.49,2.37,18.23,18.23,0,0,0,11.12-3.41,16.34,16.34,0,0,0,6.19-9.33h-9.77A7.81,7.81,0,0,1,909.74,163.43Z" transform="translate(-46.52 -66.91)"/><path class="cls-8" d="M898.54,161.77a12.74,12.74,0,0,1,0-15.29,8.49,8.49,0,0,1,6.65-2.86,8.66,8.66,0,0,1,4.55,1.2,7.92,7.92,0,0,1,3.1,3.48h9.77a16.47,16.47,0,0,0-6.19-9.36,18.18,18.18,0,0,0-11.12-3.43,18.91,18.91,0,0,0-9.49,2.37,16.78,16.78,0,0,0-6.53,6.6,21,21,0,0,0,0,19.27,17.38,17.38,0,0,0,2,2.85l8-4.14A7.38,7.38,0,0,1,898.54,161.77Z" transform="translate(-46.52 -66.91)"/><path d="M697.44,378c-2.64,1.29-15.45,0-15.59,1.53-.4,4.43,8.33,5.94,10.69,6.42,9.81,2,17.64-3.84,29.11-14.63,11.85-11.13,20.93-27.77,19.87-42.78C740,307.4,721,296.64,704.12,302.49a48,48,0,0,0-20.94,13.84,3.21,3.21,0,0,1-4.91,0,47.92,47.92,0,0,0-20.94-13.84c-16.91-5.85-35.77,5.48-39.39,25.47-4.35,24.09,11.83,51.8,39.76,69.05,7,4.31,28.3,12.1,39,8.95,7-2.06,24.78-16.1,22.85-18-4.88-4.86-16.5,7.3-25.21,6.71-8.17-.56-13.55-2.05-16.33-6.13-4.53-6.63-3.61-15.35-5.8-14.61-5.27-1.77-1.7,11.76-6.17,9.06-18.86-11.38-29.84-30-26.92-46.08,2.39-13.23,14.88-20.73,26.07-16.86a32.32,32.32,0,0,1,13.11,8.31,3.26,3.26,0,0,0,4.78,0,32.2,32.2,0,0,1,13.1-8.31c11.19-3.87,23.68,3.63,26.07,16.86,1.87,10.31-2,21.6-9.88,31.39-3.41-1.3-11-5.76-13.18-2.35-1.33,2.07,3.21,3.52,3.78,5.14C703.85,373.46,699.45,377,697.44,378Z" transform="translate(-46.52 -66.91)"/><path d="M696.2,400.12c7.47-1.19,15.52-9.2,23.5-12a.59.59,0,0,0-.11-.19c-4.88-4.86-16.5,7.3-25.21,6.71-8.17-.56-13.55-2.05-16.33-6.13-4.53-6.63-3.61-15.35-5.8-14.61-5.27-1.77-1.7,11.76-6.17,9.06-18.86-11.38-29.84-30-26.92-46.08,2.39-13.23,14.88-20.73,26.07-16.86a33.93,33.93,0,0,1,7.39,3.59c-8.27-6.14-16.48-11.29-27-8.61-6.83,1.73-13.5,9-15,15.92C622.4,368.62,668.41,404.54,696.2,400.12Z" transform="translate(-46.52 -66.91)"/><path d="M741.52,328.56C740,307.4,721,296.64,704.12,302.49a51,51,0,0,0-13.6,7.09c.05.36,14.33-5.14,22.84-2.9,16.81,4.42,20.65,20.08,18.31,35-2.07,13.17-16.76,34.82-33.88,40.92-3.45,1.23-11.55-.4-14.67-3.68-.77.12-1.24.31-1.27.59-.4,4.43,8.33,5.94,10.69,6.42,9.81,2,17.64-3.84,29.11-14.63C733.5,360.21,742.58,343.57,741.52,328.56Z" transform="translate(-46.52 -66.91)"/><path d="M679.42,355.63a16.23,16.23,0,0,0,1.11-2.73,16.19,16.19,0,0,1,1.26-3,8.6,8.6,0,0,1,3.09-3.05v-7.95a1.83,1.83,0,0,0-1.82-1.82h-7.28a1.83,1.83,0,0,0-1.82,1.82v9.47h-9.47a1.83,1.83,0,0,0-1.82,1.82v7.28a1.83,1.83,0,0,0,1.82,1.82h9.4A7.5,7.5,0,0,0,679.42,355.63Z" transform="translate(-46.52 -66.91)"/><path d="M694.35,348.34H684.9a7.18,7.18,0,0,0-2,2.18,14.81,14.81,0,0,0-1.14,2.79,17.11,17.11,0,0,1-1.22,3,8.77,8.77,0,0,1-6.58,4.28v8.18a1.82,1.82,0,0,0,1.82,1.82h7.28a1.82,1.82,0,0,0,1.82-1.82v-9.47h9.47a1.82,1.82,0,0,0,1.82-1.82v-7.28A1.82,1.82,0,0,0,694.35,348.34Z" transform="translate(-46.52 -66.91)"/><path d="M684.83,338.48a1.81,1.81,0,0,0-1.77-1.43h-7.28a1.83,1.83,0,0,0-1.82,1.82v9.47h-9.47a1.83,1.83,0,0,0-1.82,1.82v7.28a2,2,0,0,0,.12.65,14.3,14.3,0,0,0,11.14-5.35,29.62,29.62,0,0,0,2.87-4.86,30.5,30.5,0,0,1,3.21-5.37A16,16,0,0,1,684.83,338.48Z" transform="translate(-46.52 -66.91)"/><text class="cls-11" transform="translate(715.83 286.47)">KARUNA</text><text class="cls-12" transform="translate(715.83 339.78)">MEDICALS</text><path d="M916.1,397.43a8.71,8.71,0,0,1-4.55,1.2,8.61,8.61,0,0,1-6-2.17l-8,4.14a16.83,16.83,0,0,0,4.55,3.72,18.91,18.91,0,0,0,9.49,2.37,18.28,18.28,0,0,0,11.13-3.41A16.38,16.38,0,0,0,929,394h-9.78A7.85,7.85,0,0,1,916.1,397.43Z" transform="translate(-46.52 -66.91)"/><path d="M904.89,395.77a12.74,12.74,0,0,1,0-15.29,8.52,8.52,0,0,1,6.66-2.86,8.71,8.71,0,0,1,4.55,1.2,8,8,0,0,1,3.09,3.48H929a16.52,16.52,0,0,0-6.19-9.36,18.23,18.23,0,0,0-11.13-3.43,18.91,18.91,0,0,0-9.49,2.37,16.78,16.78,0,0,0-6.53,6.6,21,21,0,0,0,0,19.27,18.07,18.07,0,0,0,2,2.85l8-4.14A8.87,8.87,0,0,1,904.89,395.77Z" transform="translate(-46.52 -66.91)"/></g></svg>