<svg xmlns="http://www.w3.org/2000/svg" viewBox="0 0 1450.01 610.15"><defs><style>.cls-1,.cls-6{fill:#4f8b3c;}.cls-2{fill:#477e37;}.cls-3{fill:#c20e1a;}.cls-4,.cls-5{fill:#840e0a;}.cls-5,.cls-8{font-size:61px;}.cls-5,.cls-6,.cls-8,.cls-9{font-family:Poppins-Bold, Poppins;font-weight:700;}.cls-6,.cls-9{font-size:52px;}.cls-7{fill:#fff;letter-spacing:0em;}</style></defs><g id="OBJECTS"><path class="cls-1" d="M315.18,342.93c-9.55,4.67-55.89,0-56.39,5.54-1.46,16,30.12,21.47,38.65,23.2,35.5,7.21,63.81-13.88,105.31-52.9,42.83-40.28,75.67-100.46,71.86-154.74-5.37-76.53-74.1-115.44-135.26-94.27-40,13.85-64,36.29-75.74,50a11.66,11.66,0,0,1-17.78,0c-11.73-13.75-35.71-36.19-75.74-50C108.93,48.59,40.71,89.56,27.63,161.87,11.88,249,70.41,349.22,171.43,411.59c25.27,15.6,102.36,43.8,141.22,32.38,25.37-7.46,89.63-58.24,82.62-65.22C377.64,361.2,335.61,405.16,304.1,403c-29.54-2-49-7.39-59.08-22.16-16.36-24-13-55.51-21-52.85-19.06-6.38-6.16,42.54-22.31,32.79-68.22-41.19-107.93-108.36-97.39-166.67,8.66-47.87,53.82-75,94.32-61,23.68,8.2,38.88,20.94,47.38,30.05a11.78,11.78,0,0,0,17.29,0c8.51-9.11,23.7-21.85,47.39-30.05,40.49-14,85.66,13.12,94.31,61,6.74,37.27-7.11,78.12-35.75,113.53-12.32-4.69-39.69-20.82-47.66-8.49-4.82,7.47,11.62,12.72,13.67,18.59C338.34,326.43,322.43,339.39,315.18,342.93Z" transform="translate(423.93 163.53)"/><path class="cls-2" d="M310.67,422.85c27-4.31,56.16-33.29,85-43.41a1.77,1.77,0,0,0-.4-.69C377.64,361.2,335.61,405.16,304.1,403c-29.54-2-49-7.39-59.08-22.16-16.36-24-13-55.51-21-52.85-19.06-6.38-6.16,42.53-22.31,32.79-68.22-41.19-107.93-108.36-97.39-166.67,8.66-47.87,53.82-75,94.32-61a123.57,123.57,0,0,1,26.71,13c-29.93-22.19-59.63-40.83-97.79-31.15-24.73,6.27-48.83,32.53-54.27,57.61C43.76,308.91,210.18,438.85,310.67,422.85Z" transform="translate(423.93 163.53)"/><path class="cls-2" d="M474.61,164c-5.37-76.53-74.1-115.44-135.26-94.28a184.36,184.36,0,0,0-49.22,25.62c.21,1.32,51.84-18.59,82.63-10.48,60.81,16,74.69,72.64,66.21,126.72-7.47,47.65-60.61,126-122.54,148-12.48,4.45-41.76-1.44-53.07-13.34-2.77.45-4.48,1.13-4.57,2.17-1.46,16,30.12,21.47,38.65,23.2,35.5,7.21,63.81-13.88,105.31-52.9C445.58,278.49,478.42,218.31,474.61,164Z" transform="translate(423.93 163.53)"/><path class="cls-3" d="M250,261.93a55.53,55.53,0,0,0,4-9.88,58,58,0,0,1,4.54-10.93,30.64,30.64,0,0,1,11.18-11V201.33a6.58,6.58,0,0,0-6.58-6.58H236.84a6.58,6.58,0,0,0-6.58,6.58v34.26H196a6.57,6.57,0,0,0-6.58,6.58v26.32a6.58,6.58,0,0,0,6.58,6.58h34A27,27,0,0,0,250,261.93Z" transform="translate(423.93 163.53)"/><path class="cls-3" d="M304,235.59H269.8a25.86,25.86,0,0,0-7.21,7.88,53.69,53.69,0,0,0-4.15,10.07,59.32,59.32,0,0,1-4.41,10.7,31.76,31.76,0,0,1-23.77,15.5v29.59a6.59,6.59,0,0,0,6.58,6.58h26.32a6.59,6.59,0,0,0,6.58-6.58V275.07H304a6.58,6.58,0,0,0,6.58-6.58V242.17A6.57,6.57,0,0,0,304,235.59Z" transform="translate(423.93 163.53)"/><path class="cls-4" d="M269.58,199.89a6.58,6.58,0,0,0-6.42-5.14H236.84a6.58,6.58,0,0,0-6.58,6.58v34.26H196a6.57,6.57,0,0,0-6.58,6.58v26.32a6.53,6.53,0,0,0,.44,2.34,51.62,51.62,0,0,0,40.27-19.35c4.11-5.25,7.15-11.24,10.38-17.58,3.35-6.58,6.81-13.39,11.62-19.42A58,58,0,0,1,269.58,199.89Z" transform="translate(423.93 163.53)"/><text class="cls-5" transform="translate(1165.53 174.23)">KARUNA</text><text class="cls-6" transform="translate(1165.53 227.54)">MEDI<tspan class="cls-7" x="129.01" y="0">C</tspan><tspan class="cls-3" x="168.63" y="0">ALS</tspan></text><path class="cls-3" d="M895.36,54.75a8.69,8.69,0,0,1-4.55,1.2,8.57,8.57,0,0,1-6-2.18l-8,4.14a16.86,16.86,0,0,0,4.55,3.73A18.94,18.94,0,0,0,890.91,64,18.24,18.24,0,0,0,902,60.6a16.34,16.34,0,0,0,6.19-9.33h-9.78A7.9,7.9,0,0,1,895.36,54.75Z" transform="translate(423.93 163.53)"/><path class="cls-1" d="M884.15,53.09a11.13,11.13,0,0,1-2.54-7.65,11.12,11.12,0,0,1,2.54-7.64,8.49,8.49,0,0,1,6.66-2.86,8.66,8.66,0,0,1,4.55,1.2,7.85,7.85,0,0,1,3.09,3.48h9.78A16.47,16.47,0,0,0,902,30.26a18.13,18.13,0,0,0-11.13-3.43,19,19,0,0,0-9.49,2.36,16.72,16.72,0,0,0-6.52,6.61,19.6,19.6,0,0,0-2.34,9.64,19.44,19.44,0,0,0,2.34,9.62,16.56,16.56,0,0,0,2,2.85l8-4.14C884.6,53.56,884.37,53.33,884.15,53.09Z" transform="translate(423.93 163.53)"/><path class="cls-1" d="M-343.72-86.42c-2.64,1.29-15.45,0-15.59,1.53-.4,4.42,8.33,5.93,10.68,6.41,9.82,2,17.65-3.84,29.12-14.63,11.84-11.13,20.92-27.77,19.87-42.78-1.49-21.16-20.49-31.91-37.4-26.06A47.92,47.92,0,0,0-358-148.12a3.22,3.22,0,0,1-4.92,0,47.92,47.92,0,0,0-20.94-13.83c-16.91-5.85-35.77,5.47-39.38,25.47-4.36,24.08,11.82,51.79,39.76,69,7,4.31,28.3,12.11,39,8.95,7-2.06,24.78-16.1,22.84-18-4.87-4.86-16.49,7.3-25.2,6.71-8.17-.56-13.55-2-16.34-6.13-4.52-6.63-3.6-15.34-5.79-14.61-5.27-1.76-1.7,11.76-6.17,9.06-18.86-11.38-29.84-29.95-26.93-46.08,2.4-13.23,14.89-20.73,26.08-16.86a32.2,32.2,0,0,1,13.1,8.31,3.26,3.26,0,0,0,4.78,0,32.27,32.27,0,0,1,13.1-8.31c11.2-3.87,23.69,3.63,26.08,16.86,1.86,10.31-2,21.6-9.88,31.39-3.41-1.29-11-5.75-13.18-2.34-1.34,2.06,3.21,3.51,3.78,5.14C-337.32-91-341.72-87.41-343.72-86.42Z" transform="translate(423.93 163.53)"/><path class="cls-2" d="M-345-64.33c7.47-1.19,15.53-9.2,23.5-12a.37.37,0,0,0-.11-.19c-4.87-4.86-16.49,7.3-25.2,6.71-8.17-.56-13.55-2-16.34-6.13-4.52-6.63-3.6-15.34-5.79-14.61-5.27-1.76-1.7,11.76-6.17,9.06-18.86-11.38-29.84-29.95-26.93-46.08,2.4-13.23,14.89-20.73,26.08-16.86a34.15,34.15,0,0,1,7.39,3.59c-8.28-6.13-16.49-11.29-27-8.61-6.84,1.73-13.5,9-15,15.93C-418.76-95.83-372.75-59.91-345-64.33Z" transform="translate(423.93 163.53)"/><path class="cls-2" d="M-299.64-135.89c-1.49-21.16-20.49-31.91-37.4-26.06a50.82,50.82,0,0,0-13.61,7.08c.06.36,14.34-5.14,22.85-2.9,16.81,4.42,20.65,20.09,18.3,35-2.06,13.17-16.75,34.82-33.87,40.92-3.46,1.24-11.55-.39-14.68-3.68-.76.12-1.24.31-1.26.6-.4,4.42,8.33,5.93,10.68,6.41,9.82,2,17.65-3.84,29.12-14.63C-307.67-104.24-298.59-120.88-299.64-135.89Z" transform="translate(423.93 163.53)"/><path class="cls-3" d="M-361.75-108.82a15.46,15.46,0,0,0,1.12-2.73,16.05,16.05,0,0,1,1.25-3,8.47,8.47,0,0,1,3.1-3.05v-8a1.83,1.83,0,0,0-1.82-1.82h-7.28a1.83,1.83,0,0,0-1.82,1.82v9.48h-9.47a1.81,1.81,0,0,0-1.82,1.82V-107a1.81,1.81,0,0,0,1.82,1.82h9.4A7.44,7.44,0,0,0-361.75-108.82Z" transform="translate(423.93 163.53)"/><path class="cls-3" d="M-346.81-116.1h-9.46a7.15,7.15,0,0,0-2,2.18,15,15,0,0,0-1.15,2.78,16.35,16.35,0,0,1-1.22,3,8.74,8.74,0,0,1-6.57,4.28v8.18a1.82,1.82,0,0,0,1.82,1.82h7.28a1.82,1.82,0,0,0,1.82-1.82v-9.47h9.47A1.82,1.82,0,0,0-345-107v-7.27A1.82,1.82,0,0,0-346.81-116.1Z" transform="translate(423.93 163.53)"/><path class="cls-4" d="M-356.33-126a1.81,1.81,0,0,0-1.77-1.43h-7.28a1.83,1.83,0,0,0-1.82,1.82v9.48h-9.47a1.81,1.81,0,0,0-1.82,1.82V-107a1.75,1.75,0,0,0,.12.65,14.28,14.28,0,0,0,11.13-5.35,28.93,28.93,0,0,0,2.87-4.86,31.18,31.18,0,0,1,3.22-5.37A15.87,15.87,0,0,1-356.33-126Z" transform="translate(423.93 163.53)"/><text class="cls-5" transform="translate(145.1 52.47)">KARUNA</text><text class="cls-6" transform="translate(145.1 105.78)">MEDI<tspan class="cls-7" x="129.01" y="0">C</tspan><tspan class="cls-3" x="168.63" y="0">ALS</tspan></text><path class="cls-3" d="M-125.07-67a8.75,8.75,0,0,1-4.55,1.19,8.52,8.52,0,0,1-6-2.17l-8,4.14A16.91,16.91,0,0,0-139-60.12a19,19,0,0,0,9.49,2.36,18.23,18.23,0,0,0,11.12-3.4,16.36,16.36,0,0,0,6.19-9.34H-122A7.89,7.89,0,0,1-125.07-67Z" transform="translate(423.93 163.53)"/><path class="cls-1" d="M-136.27-68.68a11,11,0,0,1-2.55-7.64A11,11,0,0,1-136.27-84a8.45,8.45,0,0,1,6.65-2.86,8.66,8.66,0,0,1,4.55,1.19,7.89,7.89,0,0,1,3.1,3.49h9.77a16.41,16.41,0,0,0-6.19-9.36,18.12,18.12,0,0,0-11.12-3.44A18.91,18.91,0,0,0-139-92.57a16.78,16.78,0,0,0-6.53,6.6,19.64,19.64,0,0,0-2.34,9.65,19.47,19.47,0,0,0,2.34,9.62,17.38,17.38,0,0,0,2,2.85l8-4.14A6.34,6.34,0,0,1-136.27-68.68Z" transform="translate(423.93 163.53)"/><path d="M697.44,378c-2.64,1.29-15.45,0-15.59,1.53-.4,4.43,8.33,5.94,10.69,6.42,9.81,2,17.64-3.84,29.11-14.63,11.85-11.13,20.93-27.77,19.87-42.78C740,307.4,721,296.64,704.12,302.49a48,48,0,0,0-20.94,13.84,3.21,3.21,0,0,1-4.91,0,47.92,47.92,0,0,0-20.94-13.84c-16.91-5.85-35.77,5.48-39.39,25.47-4.35,24.09,11.83,51.8,39.76,69.05,7,4.31,28.3,12.1,39,8.95,7-2.06,24.78-16.1,22.85-18-4.88-4.86-16.5,7.3-25.21,6.71-8.17-.56-13.55-2.05-16.33-6.13-4.53-6.63-3.61-15.35-5.8-14.61-5.27-1.77-1.7,11.76-6.17,9.06-18.86-11.38-29.84-30-26.92-46.08,2.39-13.23,14.88-20.73,26.07-16.86a32.32,32.32,0,0,1,13.11,8.31,3.26,3.26,0,0,0,4.78,0,32.2,32.2,0,0,1,13.1-8.31c11.19-3.87,23.68,3.63,26.07,16.86,1.87,10.31-2,21.6-9.88,31.39-3.41-1.3-11-5.76-13.18-2.35-1.33,2.07,3.21,3.52,3.78,5.14C703.85,373.46,699.45,377,697.44,378Z" transform="translate(423.93 163.53)"/><path d="M696.2,400.12c7.47-1.19,15.52-9.2,23.5-12a.59.59,0,0,0-.11-.19c-4.88-4.86-16.5,7.3-25.21,6.71-8.17-.56-13.55-2.05-16.33-6.13-4.53-6.63-3.61-15.35-5.8-14.61-5.27-1.77-1.7,11.76-6.17,9.06-18.86-11.38-29.84-30-26.92-46.08,2.39-13.23,14.88-20.73,26.07-16.86a33.93,33.93,0,0,1,7.39,3.59c-8.27-6.14-16.48-11.29-27-8.61-6.83,1.73-13.5,9-15,15.92C622.4,368.62,668.41,404.54,696.2,400.12Z" transform="translate(423.93 163.53)"/><path d="M741.52,328.56C740,307.4,721,296.64,704.12,302.49a51,51,0,0,0-13.6,7.09c.05.36,14.33-5.14,22.84-2.9,16.81,4.42,20.65,20.08,18.31,35-2.07,13.17-16.76,34.82-33.88,40.92-3.45,1.23-11.55-.4-14.67-3.68-.77.12-1.24.31-1.27.59-.4,4.43,8.33,5.94,10.69,6.42,9.81,2,17.64-3.84,29.11-14.63C733.5,360.21,742.58,343.57,741.52,328.56Z" transform="translate(423.93 163.53)"/><path d="M679.42,355.63a16.23,16.23,0,0,0,1.11-2.73,16.19,16.19,0,0,1,1.26-3,8.6,8.6,0,0,1,3.09-3.05v-7.95a1.83,1.83,0,0,0-1.82-1.82h-7.28a1.83,1.83,0,0,0-1.82,1.82v9.47h-9.47a1.83,1.83,0,0,0-1.82,1.82v7.28a1.83,1.83,0,0,0,1.82,1.82h9.4A7.5,7.5,0,0,0,679.42,355.63Z" transform="translate(423.93 163.53)"/><path d="M694.35,348.34H684.9a7.18,7.18,0,0,0-2,2.18,14.81,14.81,0,0,0-1.14,2.79,17.11,17.11,0,0,1-1.22,3,8.77,8.77,0,0,1-6.58,4.28v8.18a1.82,1.82,0,0,0,1.82,1.82h7.28a1.82,1.82,0,0,0,1.82-1.82v-9.47h9.47a1.82,1.82,0,0,0,1.82-1.82v-7.28A1.82,1.82,0,0,0,694.35,348.34Z" transform="translate(423.93 163.53)"/><path d="M684.83,338.48a1.81,1.81,0,0,0-1.77-1.43h-7.28a1.83,1.83,0,0,0-1.82,1.82v9.47h-9.47a1.83,1.83,0,0,0-1.82,1.82v7.28a2,2,0,0,0,.12.65,14.3,14.3,0,0,0,11.14-5.35,29.62,29.62,0,0,0,2.87-4.86,30.5,30.5,0,0,1,3.21-5.37A16,16,0,0,1,684.83,338.48Z" transform="translate(423.93 163.53)"/><text class="cls-8" transform="translate(1186.27 516.91)">KARUNA</text><text class="cls-9" transform="translate(1186.27 570.22)">MEDICALS</text><path d="M916.1,397.43a8.71,8.71,0,0,1-4.55,1.2,8.61,8.61,0,0,1-6-2.17l-8,4.14a16.83,16.83,0,0,0,4.55,3.72,18.91,18.91,0,0,0,9.49,2.37,18.28,18.28,0,0,0,11.13-3.41A16.38,16.38,0,0,0,929,394h-9.78A7.85,7.85,0,0,1,916.1,397.43Z" transform="translate(423.93 163.53)"/><path d="M904.89,395.77a12.74,12.74,0,0,1,0-15.29,8.52,8.52,0,0,1,6.66-2.86,8.71,8.71,0,0,1,4.55,1.2,8,8,0,0,1,3.09,3.48H929a16.52,16.52,0,0,0-6.19-9.36,18.23,18.23,0,0,0-11.13-3.43,18.91,18.91,0,0,0-9.49,2.37,16.78,16.78,0,0,0-6.53,6.6,21,21,0,0,0,0,19.27,18.07,18.07,0,0,0,2,2.85l8-4.14A8.87,8.87,0,0,1,904.89,395.77Z" transform="translate(423.93 163.53)"/></g></svg>